<?xml version="1.0" encoding="UTF-8"?><svg xmlns="http://www.w3.org/2000/svg" xmlns:xlink="http://www.w3.org/1999/xlink" fill-opacity="1" color-rendering="auto" color-interpolation="auto" text-rendering="auto" stroke="black" stroke-linecap="square" width="1040" stroke-miterlimit="10" shape-rendering="auto" stroke-opacity="1" fill="black" stroke-dasharray="none" font-weight="normal" stroke-width="1" height="604" font-family="'Dialog'" font-style="normal" stroke-linejoin="miter" font-size="12px" stroke-dashoffset="0" image-rendering="auto">
  <!--Generated by ySVG 2.5-->
  <defs id="genericDefs"/>
  <g>
    <defs id="defs1">
      <linearGradient x1="232" gradientUnits="userSpaceOnUse" x2="442" y1="222" y2="289" id="linearGradient1" spreadMethod="reflect">
        <stop stop-opacity="1" stop-color="rgb(51,153,102)" offset="0%"/>
        <stop stop-opacity="1" stop-color="rgb(51,153,102)" offset="100%"/>
      </linearGradient>
      <linearGradient x1="232" gradientUnits="userSpaceOnUse" x2="442" y1="104.5" y2="171.5" id="linearGradient2" spreadMethod="reflect">
        <stop stop-opacity="1" stop-color="rgb(51,153,102)" offset="0%"/>
        <stop stop-opacity="1" stop-color="rgb(51,153,102)" offset="100%"/>
      </linearGradient>
      <linearGradient x1="552" gradientUnits="userSpaceOnUse" x2="632" y1="104" y2="144" id="linearGradient3" spreadMethod="reflect">
        <stop stop-opacity="1" stop-color="rgb(183,201,227)" offset="0%"/>
        <stop stop-opacity="1" stop-color="rgb(183,201,227)" offset="100%"/>
      </linearGradient>
      <linearGradient x1="552" gradientUnits="userSpaceOnUse" x2="632" y1="165.5" y2="205.5" id="linearGradient4" spreadMethod="reflect">
        <stop stop-opacity="1" stop-color="rgb(183,201,227)" offset="0%"/>
        <stop stop-opacity="1" stop-color="rgb(183,201,227)" offset="100%"/>
      </linearGradient>
      <linearGradient x1="552" gradientUnits="userSpaceOnUse" x2="632" y1="227" y2="267" id="linearGradient5" spreadMethod="reflect">
        <stop stop-opacity="1" stop-color="rgb(183,201,227)" offset="0%"/>
        <stop stop-opacity="1" stop-color="rgb(183,201,227)" offset="100%"/>
      </linearGradient>
      <linearGradient x1="558" gradientUnits="userSpaceOnUse" x2="638" y1="339.5" y2="379.5" id="linearGradient6" spreadMethod="reflect">
        <stop stop-opacity="1" stop-color="rgb(153,51,102)" offset="0%"/>
        <stop stop-opacity="1" stop-color="rgb(153,51,102)" offset="100%"/>
      </linearGradient>
      <linearGradient x1="232" gradientUnits="userSpaceOnUse" x2="442" y1="339.5" y2="406.5" id="linearGradient7" spreadMethod="reflect">
        <stop stop-opacity="1" stop-color="rgb(51,153,102)" offset="0%"/>
        <stop stop-opacity="1" stop-color="rgb(51,153,102)" offset="100%"/>
      </linearGradient>
      <linearGradient x1="-46" gradientUnits="userSpaceOnUse" x2="164" y1="339.5" y2="406.5" id="linearGradient8" spreadMethod="reflect">
        <stop stop-opacity="1" stop-color="rgb(51,153,102)" offset="0%"/>
        <stop stop-opacity="1" stop-color="rgb(51,153,102)" offset="100%"/>
      </linearGradient>
      <linearGradient x1="232" gradientUnits="userSpaceOnUse" x2="442" y1="457" y2="524" id="linearGradient9" spreadMethod="reflect">
        <stop stop-opacity="1" stop-color="rgb(51,153,102)" offset="0%"/>
        <stop stop-opacity="1" stop-color="rgb(51,153,102)" offset="100%"/>
      </linearGradient>
      <linearGradient x1="493" gradientUnits="userSpaceOnUse" x2="703" y1="457" y2="524" id="linearGradient10" spreadMethod="reflect">
        <stop stop-opacity="1" stop-color="rgb(51,153,102)" offset="0%"/>
        <stop stop-opacity="1" stop-color="rgb(51,153,102)" offset="100%"/>
      </linearGradient>
      <linearGradient x1="754" gradientUnits="userSpaceOnUse" x2="964" y1="574" y2="641" id="linearGradient11" spreadMethod="reflect">
        <stop stop-opacity="1" stop-color="rgb(51,153,102)" offset="0%"/>
        <stop stop-opacity="1" stop-color="rgb(51,153,102)" offset="100%"/>
      </linearGradient>
      <linearGradient x1="754" gradientUnits="userSpaceOnUse" x2="964" y1="457" y2="524" id="linearGradient12" spreadMethod="reflect">
        <stop stop-opacity="1" stop-color="rgb(51,153,102)" offset="0%"/>
        <stop stop-opacity="1" stop-color="rgb(51,153,102)" offset="100%"/>
      </linearGradient>
      <linearGradient x1="754" gradientUnits="userSpaceOnUse" x2="964" y1="340" y2="407" id="linearGradient13" spreadMethod="reflect">
        <stop stop-opacity="1" stop-color="rgb(51,153,102)" offset="0%"/>
        <stop stop-opacity="1" stop-color="rgb(51,153,102)" offset="100%"/>
      </linearGradient>
      <clipPath clipPathUnits="userSpaceOnUse" id="clipPath1">
        <path d="M0 0 L1040 0 L1040 604 L0 604 L0 0 Z"/>
      </clipPath>
      <clipPath clipPathUnits="userSpaceOnUse" id="clipPath2">
        <path d="M-61 52 L979 52 L979 656 L-61 656 L-61 52 Z"/>
      </clipPath>
    </defs>
    <g fill="white" text-rendering="geometricPrecision" shape-rendering="geometricPrecision" transform="translate(61,-52)" stroke="white">
      <rect x="-61" width="1040" height="604" y="52" clip-path="url(#clipPath2)" stroke="none"/>
    </g>
    <g fill="url(#linearGradient1)" text-rendering="geometricPrecision" shape-rendering="geometricPrecision" transform="matrix(1,0,0,1,61,-52)" stroke="url(#linearGradient1)">
      <path d="M232 222 L442 222 L442 289 L232 289 Z" stroke="none" clip-path="url(#clipPath2)"/>
    </g>
    <g text-rendering="geometricPrecision" stroke-miterlimit="1.45" shape-rendering="geometricPrecision" transform="matrix(1,0,0,1,61,-52)" stroke-linecap="butt">
      <path fill="none" d="M232 222 L442 222 L442 289 L232 289 Z" clip-path="url(#clipPath2)"/>
    </g>
    <g stroke-linecap="butt" font-size="14px" transform="matrix(1,0,0,1,61,-52)" fill="white" text-rendering="geometricPrecision" font-family="sans-serif" shape-rendering="geometricPrecision" stroke="white" stroke-miterlimit="1.45">
      <text x="297.6523" xml:space="preserve" y="244.0498" clip-path="url(#clipPath2)" stroke="none">filter_reads</text>
      <text x="334.7749" xml:space="preserve" y="260.3467" clip-path="url(#clipPath2)" stroke="none"> </text>
      <text x="258.8584" xml:space="preserve" y="276.6436" clip-path="url(#clipPath2)" stroke="none">(bwa/samtools/picard)</text>
    </g>
    <g fill="url(#linearGradient2)" text-rendering="geometricPrecision" shape-rendering="geometricPrecision" transform="matrix(1,0,0,1,61,-52)" stroke="url(#linearGradient2)">
      <path d="M232 104.5 L442 104.5 L442 171.5 L232 171.5 Z" stroke="none" clip-path="url(#clipPath2)"/>
    </g>
    <g text-rendering="geometricPrecision" stroke-miterlimit="1.45" shape-rendering="geometricPrecision" transform="matrix(1,0,0,1,61,-52)" stroke-linecap="butt">
      <path fill="none" d="M232 104.5 L442 104.5 L442 171.5 L232 171.5 Z" clip-path="url(#clipPath2)"/>
    </g>
    <g stroke-linecap="butt" font-size="14px" transform="matrix(1,0,0,1,61,-52)" fill="white" text-rendering="geometricPrecision" font-family="sans-serif" shape-rendering="geometricPrecision" stroke="white" stroke-miterlimit="1.45">
      <text x="310.8218" xml:space="preserve" y="126.5498" clip-path="url(#clipPath2)" stroke="none">qc_trim</text>
      <text x="334.7749" xml:space="preserve" y="142.8467" clip-path="url(#clipPath2)" stroke="none"> </text>
      <text x="267.7109" xml:space="preserve" y="159.1436" clip-path="url(#clipPath2)" stroke="none">(trim_galore/fastqc)</text>
    </g>
    <g text-rendering="geometricPrecision" stroke-miterlimit="1.45" shape-rendering="geometricPrecision" transform="matrix(1,0,0,1,61,-52)" stroke-linecap="butt">
      <path fill="none" d="M337 171.4772 L337 213.9811" clip-path="url(#clipPath2)"/>
    </g>
    <g text-rendering="geometricPrecision" stroke-miterlimit="1.45" shape-rendering="geometricPrecision" transform="matrix(1,0,0,1,61,-52)" stroke-linecap="butt">
      <path d="M337 221.9811 L342 209.9811 L337 212.9811 L332 209.9811 Z" stroke="none" clip-path="url(#clipPath2)"/>
    </g>
    <g fill="rgb(245,245,245)" text-rendering="geometricPrecision" shape-rendering="geometricPrecision" transform="matrix(1,0,0,1,61,-52)" stroke="rgb(245,245,245)">
      <rect x="511" y="67.5391" clip-path="url(#clipPath2)" width="174" rx="4" ry="4" height="222.9609" stroke="none"/>
      <rect x="511" y="67.5391" clip-path="url(#clipPath2)" fill="rgb(235,235,235)" width="174" height="21.4609" stroke="none"/>
    </g>
    <g font-size="15px" stroke-linecap="butt" transform="matrix(1,0,0,1,61,-52)" text-rendering="geometricPrecision" font-family="sans-serif" shape-rendering="geometricPrecision" stroke-miterlimit="1.45">
      <text x="538.5298" xml:space="preserve" y="83.4624" clip-path="url(#clipPath2)" stroke="none">Taxonomic subsets</text>
      <rect x="511" y="67.5391" clip-path="url(#clipPath2)" fill="none" width="174" stroke-dasharray="6,2" rx="4" ry="4" height="222.9609"/>
    </g>
    <g fill="url(#linearGradient3)" text-rendering="geometricPrecision" shape-rendering="geometricPrecision" transform="matrix(1,0,0,1,61,-52)" stroke="url(#linearGradient3)">
      <path d="M552 104 L632 104 L632 139 Q612 129 592 139 Q572 149 552 139 Z" stroke="none" clip-path="url(#clipPath2)"/>
    </g>
    <g text-rendering="geometricPrecision" stroke-miterlimit="1.45" shape-rendering="geometricPrecision" transform="matrix(1,0,0,1,61,-52)" stroke-linecap="butt">
      <path fill="none" d="M552 104 L632 104 L632 139 Q612 129 592 139 Q572 149 552 139 Z" clip-path="url(#clipPath2)"/>
      <text x="578.9717" xml:space="preserve" y="128.1543" clip-path="url(#clipPath2)" font-family="sans-serif" stroke="none">viral</text>
    </g>
    <g fill="url(#linearGradient4)" text-rendering="geometricPrecision" shape-rendering="geometricPrecision" transform="matrix(1,0,0,1,61,-52)" stroke="url(#linearGradient4)">
      <path d="M552 165.5 L632 165.5 L632 200.5 Q612 190.5 592 200.5 Q572 210.5 552 200.5 Z" stroke="none" clip-path="url(#clipPath2)"/>
    </g>
    <g text-rendering="geometricPrecision" stroke-miterlimit="1.45" shape-rendering="geometricPrecision" transform="matrix(1,0,0,1,61,-52)" stroke-linecap="butt">
      <path fill="none" d="M552 165.5 L632 165.5 L632 200.5 Q612 190.5 592 200.5 Q572 210.5 552 200.5 Z" clip-path="url(#clipPath2)"/>
      <text x="573.5664" xml:space="preserve" y="189.6543" clip-path="url(#clipPath2)" font-family="sans-serif" stroke="none">plants</text>
    </g>
    <g fill="url(#linearGradient5)" text-rendering="geometricPrecision" shape-rendering="geometricPrecision" transform="matrix(1,0,0,1,61,-52)" stroke="url(#linearGradient5)">
      <path d="M552 227 L632 227 L632 262 Q612 252 592 262 Q572 272 552 262 Z" stroke="none" clip-path="url(#clipPath2)"/>
    </g>
    <g text-rendering="geometricPrecision" stroke-miterlimit="1.45" shape-rendering="geometricPrecision" transform="matrix(1,0,0,1,61,-52)" stroke-linecap="butt">
      <path fill="none" d="M552 227 L632 227 L632 262 Q612 252 592 262 Q572 272 552 262 Z" clip-path="url(#clipPath2)"/>
      <text x="564.4082" xml:space="preserve" y="251.1543" clip-path="url(#clipPath2)" font-family="sans-serif" stroke="none">parasites</text>
    </g>
    <g text-rendering="geometricPrecision" stroke-miterlimit="1.45" shape-rendering="geometricPrecision" transform="matrix(1,0,0,1,61,-52)" stroke-linecap="butt">
      <path fill="none" d="M442.0142 235.5 L462 235.5 L462 124 L543.9561 124" clip-path="url(#clipPath2)"/>
      <path d="M551.9561 124 L539.9561 119 L542.9561 124 L539.9561 129 Z" clip-path="url(#clipPath2)" stroke="none"/>
      <path fill="none" d="M442.004 247 L470.3935 247 L470.3935 185.5 L544.0088 185.5" clip-path="url(#clipPath2)"/>
      <path d="M552.0088 185.5 L540.0088 180.5 L543.0088 185.5 L540.0088 190.5 Z" clip-path="url(#clipPath2)" stroke="none"/>
      <path fill="none" d="M441.9996 255.5 L476.5 255.5 L476.5 247 L543.9867 247" clip-path="url(#clipPath2)"/>
      <path d="M551.9867 247 L539.9867 242 L542.9867 247 L539.9867 252 Z" clip-path="url(#clipPath2)" stroke="none"/>
    </g>
    <g fill="rgb(245,245,245)" text-rendering="geometricPrecision" shape-rendering="geometricPrecision" transform="matrix(1,0,0,1,61,-52)" stroke="rgb(245,245,245)">
      <rect x="511" y="303.0391" clip-path="url(#clipPath2)" width="174" rx="4" ry="4" height="91.4609" stroke="none"/>
      <rect x="511" y="303.0391" clip-path="url(#clipPath2)" fill="rgb(235,235,235)" width="174" height="21.4609" stroke="none"/>
    </g>
    <g font-size="15px" stroke-linecap="butt" transform="matrix(1,0,0,1,61,-52)" text-rendering="geometricPrecision" font-family="sans-serif" shape-rendering="geometricPrecision" stroke-miterlimit="1.45">
      <text x="626.3398" xml:space="preserve" y="318.9624" clip-path="url(#clipPath2)" stroke="none">Discard</text>
      <rect x="511" y="303.0391" clip-path="url(#clipPath2)" fill="none" width="174" stroke-dasharray="6,2" rx="4" ry="4" height="91.4609"/>
    </g>
    <g fill="url(#linearGradient6)" text-rendering="geometricPrecision" shape-rendering="geometricPrecision" transform="matrix(1,0,0,1,61,-52)" stroke="url(#linearGradient6)">
      <path d="M558 339.5 L638 339.5 L638 374.5 Q618 364.5 598 374.5 Q578 384.5 558 374.5 Z" stroke="none" clip-path="url(#clipPath2)"/>
    </g>
    <g text-rendering="geometricPrecision" stroke-miterlimit="1.45" shape-rendering="geometricPrecision" transform="matrix(1,0,0,1,61,-52)" stroke-linecap="butt">
      <path fill="none" d="M558 339.5 L638 339.5 L638 374.5 Q618 364.5 598 374.5 Q578 384.5 558 374.5 Z" clip-path="url(#clipPath2)"/>
      <text x="576.3613" y="363.6543" clip-path="url(#clipPath2)" fill="white" font-family="sans-serif" stroke="none" xml:space="preserve">Human</text>
    </g>
    <g fill="url(#linearGradient7)" text-rendering="geometricPrecision" shape-rendering="geometricPrecision" transform="matrix(1,0,0,1,61,-52)" stroke="url(#linearGradient7)">
      <path d="M232 339.5 L442 339.5 L442 406.5 L232 406.5 Z" stroke="none" clip-path="url(#clipPath2)"/>
    </g>
    <g text-rendering="geometricPrecision" stroke-miterlimit="1.45" shape-rendering="geometricPrecision" transform="matrix(1,0,0,1,61,-52)" stroke-linecap="butt">
      <path fill="none" d="M232 339.5 L442 339.5 L442 406.5 L232 406.5 Z" clip-path="url(#clipPath2)"/>
    </g>
    <g stroke-linecap="butt" font-size="14px" transform="matrix(1,0,0,1,61,-52)" fill="white" text-rendering="geometricPrecision" font-family="sans-serif" shape-rendering="geometricPrecision" stroke="white" stroke-miterlimit="1.45">
      <text x="303.5962" xml:space="preserve" y="361.5498" clip-path="url(#clipPath2)" stroke="none">assemble</text>
      <text x="334.7749" xml:space="preserve" y="377.8467" clip-path="url(#clipPath2)" stroke="none"> </text>
      <text x="305.124" xml:space="preserve" y="394.1436" clip-path="url(#clipPath2)" stroke="none">(SPaDEs)</text>
    </g>
    <g fill="url(#linearGradient8)" text-rendering="geometricPrecision" shape-rendering="geometricPrecision" transform="matrix(1,0,0,1,61,-52)" stroke="url(#linearGradient8)">
      <path d="M-46 339.5 L164 339.5 L164 406.5 L-46 406.5 Z" stroke="none" clip-path="url(#clipPath2)"/>
    </g>
    <g text-rendering="geometricPrecision" stroke-miterlimit="1.45" shape-rendering="geometricPrecision" transform="matrix(1,0,0,1,61,-52)" stroke-linecap="butt">
      <path fill="none" d="M-46 339.5 L164 339.5 L164 406.5 L-46 406.5 Z" clip-path="url(#clipPath2)"/>
    </g>
    <g stroke-linecap="butt" font-size="14px" transform="matrix(1,0,0,1,61,-52)" fill="white" text-rendering="geometricPrecision" font-family="sans-serif" shape-rendering="geometricPrecision" stroke="white" stroke-miterlimit="1.45">
      <text x="26.9463" xml:space="preserve" y="361.5498" clip-path="url(#clipPath2)" stroke="none">tax_class</text>
      <text x="56.7749" xml:space="preserve" y="377.8467" clip-path="url(#clipPath2)" stroke="none"> </text>
      <text x="16.8291" xml:space="preserve" y="394.1436" clip-path="url(#clipPath2)" stroke="none">(MetaPhlan)</text>
    </g>
    <g fill="url(#linearGradient9)" text-rendering="geometricPrecision" shape-rendering="geometricPrecision" transform="matrix(1,0,0,1,61,-52)" stroke="url(#linearGradient9)">
      <path d="M232 457 L442 457 L442 524 L232 524 Z" stroke="none" clip-path="url(#clipPath2)"/>
    </g>
    <g text-rendering="geometricPrecision" stroke-miterlimit="1.45" shape-rendering="geometricPrecision" transform="matrix(1,0,0,1,61,-52)" stroke-linecap="butt">
      <path fill="none" d="M232 457 L442 457 L442 524 L232 524 Z" clip-path="url(#clipPath2)"/>
    </g>
    <g stroke-linecap="butt" font-size="14px" transform="matrix(1,0,0,1,61,-52)" fill="white" text-rendering="geometricPrecision" font-family="sans-serif" shape-rendering="geometricPrecision" stroke="white" stroke-miterlimit="1.45">
      <text x="287.7505" xml:space="preserve" y="479.0498" clip-path="url(#clipPath2)" stroke="none">predict_genes</text>
      <text x="334.7749" xml:space="preserve" y="495.3467" clip-path="url(#clipPath2)" stroke="none"> </text>
      <text x="277.8452" xml:space="preserve" y="511.6436" clip-path="url(#clipPath2)" stroke="none">(metagenemark)</text>
    </g>
    <g fill="url(#linearGradient10)" text-rendering="geometricPrecision" shape-rendering="geometricPrecision" transform="matrix(1,0,0,1,61,-52)" stroke="url(#linearGradient10)">
      <path d="M493 457 L703 457 L703 524 L493 524 Z" stroke="none" clip-path="url(#clipPath2)"/>
    </g>
    <g text-rendering="geometricPrecision" stroke-miterlimit="1.45" shape-rendering="geometricPrecision" transform="matrix(1,0,0,1,61,-52)" stroke-linecap="butt">
      <path fill="none" d="M493 457 L703 457 L703 524 L493 524 Z" clip-path="url(#clipPath2)"/>
    </g>
    <g stroke-linecap="butt" font-size="14px" transform="matrix(1,0,0,1,61,-52)" fill="white" text-rendering="geometricPrecision" font-family="sans-serif" shape-rendering="geometricPrecision" stroke="white" stroke-miterlimit="1.45">
      <text x="549.5537" xml:space="preserve" y="479.0498" clip-path="url(#clipPath2)" stroke="none">cluster_genes</text>
      <text x="595.7749" xml:space="preserve" y="495.3467" clip-path="url(#clipPath2)" stroke="none"> </text>
      <text x="571.48" xml:space="preserve" y="511.6436" clip-path="url(#clipPath2)" stroke="none">(uclust)</text>
    </g>
    <g fill="url(#linearGradient11)" text-rendering="geometricPrecision" shape-rendering="geometricPrecision" transform="matrix(1,0,0,1,61,-52)" stroke="url(#linearGradient11)">
      <path d="M754 574 L964 574 L964 641 L754 641 Z" stroke="none" clip-path="url(#clipPath2)"/>
    </g>
    <g text-rendering="geometricPrecision" stroke-miterlimit="1.45" shape-rendering="geometricPrecision" transform="matrix(1,0,0,1,61,-52)" stroke-linecap="butt">
      <path fill="none" d="M754 574 L964 574 L964 641 L754 641 Z" clip-path="url(#clipPath2)"/>
    </g>
    <g stroke-linecap="butt" font-size="14px" transform="matrix(1,0,0,1,61,-52)" fill="white" text-rendering="geometricPrecision" font-family="sans-serif" shape-rendering="geometricPrecision" stroke="white" stroke-miterlimit="1.45">
      <text x="792.7632" xml:space="preserve" y="596.0498" clip-path="url(#clipPath2)" stroke="none">cluster_abundance</text>
      <text x="856.7749" xml:space="preserve" y="612.3467" clip-path="url(#clipPath2)" stroke="none"> </text>
      <text x="832.48" xml:space="preserve" y="628.6436" clip-path="url(#clipPath2)" stroke="none">(uclust)</text>
    </g>
    <g fill="url(#linearGradient12)" text-rendering="geometricPrecision" shape-rendering="geometricPrecision" transform="matrix(1,0,0,1,61,-52)" stroke="url(#linearGradient12)">
      <path d="M754 457 L964 457 L964 524 L754 524 Z" stroke="none" clip-path="url(#clipPath2)"/>
    </g>
    <g text-rendering="geometricPrecision" stroke-miterlimit="1.45" shape-rendering="geometricPrecision" transform="matrix(1,0,0,1,61,-52)" stroke-linecap="butt">
      <path fill="none" d="M754 457 L964 457 L964 524 L754 524 Z" clip-path="url(#clipPath2)"/>
    </g>
    <g stroke-linecap="butt" font-size="14px" transform="matrix(1,0,0,1,61,-52)" fill="white" text-rendering="geometricPrecision" font-family="sans-serif" shape-rendering="geometricPrecision" stroke="white" stroke-miterlimit="1.45">
      <text x="820.124" xml:space="preserve" y="479.0498" clip-path="url(#clipPath2)" stroke="none">func_annot</text>
      <text x="856.7749" xml:space="preserve" y="495.3467" clip-path="url(#clipPath2)" stroke="none"> </text>
      <text x="795.0327" xml:space="preserve" y="511.6436" clip-path="url(#clipPath2)" stroke="none">(iprscan/diamond)</text>
    </g>
    <g fill="url(#linearGradient13)" text-rendering="geometricPrecision" shape-rendering="geometricPrecision" transform="matrix(1,0,0,1,61,-52)" stroke="url(#linearGradient13)">
      <path d="M754 340 L964 340 L964 407 L754 407 Z" stroke="none" clip-path="url(#clipPath2)"/>
    </g>
    <g text-rendering="geometricPrecision" stroke-miterlimit="1.45" shape-rendering="geometricPrecision" transform="matrix(1,0,0,1,61,-52)" stroke-linecap="butt">
      <path fill="none" d="M754 340 L964 340 L964 407 L754 407 Z" clip-path="url(#clipPath2)"/>
    </g>
    <g stroke-linecap="butt" font-size="14px" transform="matrix(1,0,0,1,61,-52)" fill="white" text-rendering="geometricPrecision" font-family="sans-serif" shape-rendering="geometricPrecision" stroke="white" stroke-miterlimit="1.45">
      <text x="819.7002" xml:space="preserve" y="362.0498" clip-path="url(#clipPath2)" stroke="none">IGC_screen</text>
      <text x="856.7749" xml:space="preserve" y="378.3467" clip-path="url(#clipPath2)" stroke="none"> </text>
      <text x="822.8789" xml:space="preserve" y="394.6436" clip-path="url(#clipPath2)" stroke="none">(diamond)</text>
    </g>
    <g text-rendering="geometricPrecision" stroke-miterlimit="1.45" shape-rendering="geometricPrecision" transform="matrix(1,0,0,1,61,-52)" stroke-linecap="butt">
      <path fill="none" d="M441.9996 267 L476.5 267 L476.5 359.5 L549.9845 359.5" clip-path="url(#clipPath2)"/>
      <path d="M557.9845 359.5 L545.9845 354.5 L548.9845 359.5 L545.9845 364.5 Z" clip-path="url(#clipPath2)" stroke="none"/>
      <path fill="none" d="M337 288.9772 L337 331.4811" clip-path="url(#clipPath2)"/>
      <path d="M337 339.4811 L342 327.4811 L337 330.4811 L332 327.4811 Z" clip-path="url(#clipPath2)" stroke="none"/>
      <path fill="none" d="M231.9695 255.5 L59 255.5 L59 331.5228" clip-path="url(#clipPath2)"/>
      <path d="M59 339.5228 L64 327.5228 L59 330.5228 L54 327.5228 Z" clip-path="url(#clipPath2)" stroke="none"/>
      <path fill="none" d="M337 406.4772 L337 448.9811" clip-path="url(#clipPath2)"/>
      <path d="M337 456.9811 L342 444.9811 L337 447.9811 L332 444.9811 Z" clip-path="url(#clipPath2)" stroke="none"/>
      <path fill="none" d="M441.9799 490.5 L484.9835 490.5" clip-path="url(#clipPath2)"/>
      <path d="M492.9835 490.5 L480.9835 485.5 L483.9835 490.5 L480.9835 495.5 Z" clip-path="url(#clipPath2)" stroke="none"/>
      <path fill="none" d="M598 524.0061 L598 549 L859 549 L859 565.9939" clip-path="url(#clipPath2)"/>
      <path d="M859 573.9939 L864 561.9939 L859 564.9939 L854 561.9939 Z" clip-path="url(#clipPath2)" stroke="none"/>
      <path fill="none" d="M746.0042 607.5 L467.5 607.5 L467.5 322.0483 L406 322.0483 L406 289.035" clip-path="url(#clipPath2)"/>
      <path d="M754.0042 607.5 L742.0042 602.5 L745.0042 607.5 L742.0042 612.5 Z" clip-path="url(#clipPath2)" stroke="none"/>
      <path fill="none" d="M702.9799 490.5 L745.9835 490.5" clip-path="url(#clipPath2)"/>
      <path d="M753.9835 490.5 L741.9835 485.5 L744.9835 490.5 L741.9835 495.5 Z" clip-path="url(#clipPath2)" stroke="none"/>
      <path fill="none" d="M598 456.9624 L598 443 L859 443 L859 414.9944" clip-path="url(#clipPath2)"/>
      <path d="M859 406.9944 L854 418.9944 L859 415.9944 L864 418.9944 Z" clip-path="url(#clipPath2)" stroke="none"/>
    </g>
  </g>
</svg>
